<?xml version="1.0" encoding="utf-8"?>
<!-- Generator: Adobe Illustrator 25.3.1, SVG Export Plug-In . SVG Version: 6.00 Build 0)  -->
<svg version="1.1" id="Layer_1" xmlns="http://www.w3.org/2000/svg" xmlns:xlink="http://www.w3.org/1999/xlink" x="0px" y="0px"
	 viewBox="0 0 128 128" style="enable-background:new 0 0 128 128;" xml:space="preserve">
<g>
	<g>
		<g>
			<rect x="84" y="22" transform="matrix(0.2106 -0.9776 0.9776 0.2106 47.8506 107.2814)" width="12.7" height="4"/>
		</g>
		<g>
			<rect x="67.9" y="19" transform="matrix(0.9524 -0.3047 0.3047 0.9524 -4.4018 22.5166)" width="4" height="12.7"/>
		</g>
		<g>
			<rect x="50.9" y="30.5" transform="matrix(0.6734 -0.7393 0.7393 0.6734 -9.9066 51.1418)" width="4" height="12.6"/>
		</g>
		<g>
			<rect x="110.4" y="82.8" transform="matrix(0.6736 -0.7391 0.7391 0.6736 -29.19 112.1428)" width="4" height="12.6"/>
		</g>
		<g>
			<rect x="119.4" y="64.4" transform="matrix(0.2127 -0.9771 0.9771 0.2127 26.5179 174.2825)" width="4" height="12.6"/>
		</g>
		<g>
			<rect x="113.8" y="48.2" transform="matrix(0.9519 -0.3064 0.3064 0.9519 -9.6016 39.2012)" width="12.6" height="4"/>
		</g>
		<g>
			<rect x="102.4" y="31.1" transform="matrix(0.6701 -0.7423 0.7423 0.6701 11.2925 91.6099)" width="12.7" height="4"/>
		</g>
	</g>
	<g>
		<path d="M94.5,89.1l-1.7-3.6c8.7-4,14.4-12.8,14.4-22.5c0-13.6-11-24.7-24.6-24.7c-7.8,0-15,3.6-19.7,10l-3.2-2.4
			c5.4-7.3,13.9-11.6,22.9-11.6c15.8,0,28.6,12.9,28.6,28.7C111.2,74.2,104.6,84.4,94.5,89.1z"/>
	</g>
	<g>
		<path d="M94.5,110.6h-76C8.3,110.6,0,102.3,0,92c0-8.9,6.2-16.4,14.7-18.2c0.8-15.4,13.5-27.6,29-27.6c13.7,0,25.6,9.8,28.4,23
			c1.1-0.2,2.3-0.3,3.4-0.3c11.3,0,20.4,9.2,20.4,20.5c0,0.2,0,0.3,0,0.5c4.6,1.1,8,5.2,8,10.2C103.9,105.6,99.8,110,94.5,110.6
			L94.5,110.6z M91.3,106.4l1.7,0.1c0.2,0,0.4,0,0.5,0c3.6,0,6.4-2.9,6.4-6.5c0-3.5-2.7-6.4-6.2-6.5l-2.2-0.1l0.3-2.2
			c0.1-0.7,0.1-1.3,0.1-2c0-9.1-7.4-16.5-16.4-16.5c-1.5,0-3,0.2-4.4,0.6l-2.2,0.6l-0.3-2.3c-1.7-12.4-12.4-21.7-24.8-21.7
			c-13.8,0-25.1,11.3-25.1,25.2l0,2l-1.8,0.2C9.5,78.4,4,84.6,4,92c0,8,6.5,14.6,14.5,14.6h72.7L91.3,106.4z"/>
	</g>
	<g>
		<path d="M27.9,76.7l-4,0C24,65,33.4,55.6,45,55.6v4C35.6,59.6,27.9,67.2,27.9,76.7z"/>
	</g>
</g>
</svg>
